<svg xmlns="http://www.w3.org/2000/svg" width="256" height="256" viewBox="0 0 256 256">
  <g id="favicon" transform="translate(-1227 -489)">
    <rect id="Rectangle_1" data-name="Rectangle 1" width="256" height="256" transform="translate(1227 489)" fill="#201d30"/>
    <path id="icon-venox" d="M167.836,1.973A4.52,4.52,0,0,0,166.207.532,4.674,4.674,0,0,0,164.072,0H122.8a4.639,4.639,0,0,0-2.526.739,4.442,4.442,0,0,0-1.677,1.977L85.474,79.44,51.6,2.716A4.48,4.48,0,0,0,49.925.748,4.678,4.678,0,0,0,47.41,0H4.943A4.65,4.65,0,0,0,2.805.535,4.494,4.494,0,0,0,1.18,1.985,4.346,4.346,0,0,0,.753,6.174L60.119,140.612a4.47,4.47,0,0,0,1.684,1.943,4.682,4.682,0,0,0,5.013,0,4.468,4.468,0,0,0,1.684-1.943L88.786,94.651h38.2a4.664,4.664,0,0,0,2.523-.743,4.463,4.463,0,0,0,1.68-1.973L168.25,6.089a4.333,4.333,0,0,0-.414-4.116ZM64.372,127.63,11.856,8.854H44.4L80.569,90.778ZM123.951,85.8H92.587L125.846,8.854H157.21Z" transform="translate(1270.515 545.37)" fill="#fff"/>
  </g>
</svg>
