<svg width="19" height="30" viewBox="0 0 19 30" fill="none" xmlns="http://www.w3.org/2000/svg">
<path d="M18.775 12.1106L12.6389 13.7373L11.2713 7.36961L13.0948 6.9586L13.8155 9.97455C13.8155 9.97455 15.4725 7.25673 13.2627 4.44049C11.9602 2.9933 11.3422 2.93252 9.88203 2.70386C8.59692 2.52007 5.60992 2.95422 4.71989 6.44051C4.34362 8.68655 4.76765 10.3479 7.66203 12.5231L7.49995 14.9442C7.49995 14.9442 4.26837 12.6678 3.43479 11.0715C2.79079 9.80812 1.68368 7.31317 3.68081 3.83991C4.75463 2.10327 6.87332 0.437556 10.6056 0.612666C12.4812 0.690814 17.0644 2.98606 16.3539 8.34357C16.2309 9.34792 15.7099 10.6851 15.7099 10.6851L18.228 10.1251L18.775 12.1106ZM15.2714 26.3857C14.1483 28.092 11.9862 29.6998 8.26262 29.4292C6.38561 29.3018 1.86892 26.885 2.71987 21.5477C2.86893 20.5492 3.4261 19.2279 3.4261 19.2279L0.894964 19.7199L0.400024 17.7243L6.57954 16.2597L7.7807 22.6621L5.94277 23.0268L5.30311 19.9877C5.30311 19.9877 3.57516 22.6577 5.70688 25.5348C6.96883 27.0167 7.58389 27.0919 9.0441 27.3582C10.3205 27.5782 13.3191 27.2193 14.3018 23.7591C14.7359 21.526 14.3539 19.8516 11.5217 17.5969L11.7489 15.1801C11.7489 15.1801 14.9197 17.539 15.7099 19.1584C16.3148 20.4435 17.3539 22.9689 15.2714 26.3857Z" fill="white"/>
</svg>
