<svg width="29" height="33" viewBox="0 0 29 33" fill="none" xmlns="http://www.w3.org/2000/svg">
<path d="M9.16285 3.9589C8.76987 3.89823 8.75332 3.88995 8.93809 3.86237C9.29246 3.80722 10.1308 3.88306 10.7086 4.01957C12.0557 4.34084 13.2815 5.16127 14.5915 6.61874L14.9389 7.00482L15.4353 6.92623C17.5312 6.5884 19.6643 6.85728 21.4472 7.68047C21.9381 7.9066 22.7116 8.35749 22.8082 8.4747C22.8399 8.51055 22.8964 8.74909 22.9336 9.00281C23.066 9.88115 22.9998 10.554 22.7323 11.0573C22.5862 11.3303 22.5779 11.4158 22.6758 11.6502C22.7222 11.7471 22.795 11.8289 22.8856 11.8864C22.9763 11.9439 23.0813 11.9749 23.1887 11.9757C23.6327 11.9757 24.1098 11.2586 24.3304 10.2617L24.4187 9.86598L24.5924 10.0632C25.5466 11.1442 26.2953 12.6182 26.4236 13.6661L26.458 13.9405L26.2967 13.6923C26.0209 13.2649 25.7451 12.9726 25.3894 12.7368C24.7496 12.3135 24.0726 12.1701 22.28 12.0749C20.6613 11.9894 19.7443 11.8516 18.837 11.5551C17.2913 11.0518 16.5122 10.3803 14.6756 7.97141C13.8607 6.90141 13.356 6.30987 12.8555 5.83416C11.7151 4.75037 10.5955 4.18227 9.16285 3.9589Z" fill="white"/>
<path d="M23.1736 6.34846C23.2149 5.63145 23.3115 5.15849 23.5073 4.72691C23.5845 4.55593 23.6576 4.41528 23.6686 4.41528C23.6563 4.51208 23.6308 4.60672 23.5928 4.69657C23.4507 5.11575 23.4273 5.68936 23.5252 6.35536C23.6493 7.20198 23.721 7.32332 24.6145 8.23751C25.0351 8.66634 25.5232 9.20686 25.6997 9.43989L26.0209 9.86183L25.6997 9.55985C25.3067 9.19169 24.4021 8.47054 24.2022 8.36851C24.0685 8.29956 24.0478 8.30094 23.965 8.3823C23.8892 8.45951 23.8727 8.57258 23.863 9.11172C23.8465 9.95007 23.732 10.4906 23.4549 11.0284C23.3059 11.3179 23.2825 11.2572 23.4176 10.9277C23.5183 10.6823 23.5279 10.5747 23.5279 9.76255C23.5279 8.12996 23.3335 7.73836 22.196 7.06547C21.8537 6.86685 21.5021 6.68464 21.1425 6.51944C20.9648 6.44817 20.7925 6.36431 20.6268 6.26849C20.6585 6.23677 21.7671 6.55943 22.2125 6.73179C22.8771 6.98688 22.986 7.01997 23.0674 6.98826C23.1212 6.96757 23.1474 6.81038 23.1736 6.34846ZM9.92676 9.14068C9.12839 8.04171 8.63476 6.35536 8.74093 5.09507L8.77402 4.70485L8.95603 4.73794C9.29799 4.79999 9.88677 5.01923 10.1625 5.18745C10.9182 5.64662 11.2463 6.25194 11.5786 7.80455C11.6765 8.25958 11.8048 8.7739 11.8641 8.94901C11.9578 9.22892 12.3163 9.88389 12.6087 10.31C12.8183 10.6161 12.6776 10.7608 12.2143 10.7195C11.5056 10.6547 10.5459 9.99282 9.92676 9.14068ZM22.2056 17.3243C18.473 15.8213 17.1589 14.5169 17.1589 12.3162C17.1589 11.9922 17.17 11.7274 17.1824 11.7274C17.1962 11.7274 17.341 11.8336 17.5037 11.9646C18.2607 12.5713 19.1087 12.8305 21.4541 13.1725C22.8344 13.3752 23.6121 13.5379 24.3291 13.7751C26.607 14.5307 28.0162 16.064 28.3526 18.1516C28.4491 18.7583 28.3926 19.8959 28.234 20.4957C28.1099 20.97 27.728 21.8235 27.6273 21.8566C27.5998 21.8649 27.5722 21.7587 27.5639 21.6112C27.5253 20.828 27.1296 20.0641 26.4636 19.4919C25.7066 18.8424 24.6903 18.324 22.2042 17.3243H22.2056ZM19.5858 17.9475C19.5417 17.6812 19.4813 17.4178 19.4051 17.1588L19.3086 16.8748L19.4865 17.0733C19.7305 17.3491 19.925 17.6993 20.0877 18.1681C20.2131 18.5253 20.2269 18.6314 20.2255 19.212C20.2255 19.7828 20.2104 19.9014 20.0946 20.224C19.9335 20.6972 19.6639 21.126 19.3072 21.4761C18.6247 22.171 17.7491 22.5543 16.4833 22.7143C16.2627 22.7419 15.6229 22.7887 15.0589 22.8177C13.6387 22.8922 12.7052 23.0438 11.8655 23.3389C11.7897 23.3728 11.7084 23.3925 11.6255 23.3968C11.5924 23.3624 12.1633 23.0218 12.6362 22.7943C13.3022 22.473 13.9641 22.2979 15.4491 22.0511C16.1827 21.9283 16.9411 21.7808 17.1327 21.7215C18.9501 21.1644 19.8836 19.7276 19.5844 17.9475H19.5858Z" fill="white"/>
<path d="M21.2955 20.9866C20.7991 19.9207 20.6861 18.8907 20.9577 17.931C20.9867 17.829 21.0335 17.7449 21.0611 17.7449C21.1544 17.7786 21.2423 17.826 21.3217 17.8855C21.5506 18.04 22.0084 18.2992 23.2287 18.9638C24.7524 19.7953 25.621 20.4392 26.2126 21.1727C26.7297 21.8167 27.0496 22.5502 27.204 23.4437C27.2909 23.9498 27.2398 25.1673 27.1102 25.6775C26.7007 27.2853 25.7479 28.5483 24.3911 29.2846C24.263 29.3587 24.1304 29.4246 23.994 29.4818C23.9747 29.4818 24.0464 29.2984 24.1553 29.0723C24.6103 28.1181 24.6641 27.1888 24.318 26.1546C24.107 25.5217 23.6755 24.7482 22.8054 23.4437C21.7933 21.927 21.5451 21.5216 21.2955 20.9866ZM7.27654 26.7379C8.66231 25.5686 10.3845 24.7385 11.9551 24.4834C12.6307 24.3731 13.7586 24.4172 14.3846 24.5772C15.3884 24.8336 16.2875 25.41 16.7549 26.0953C17.2099 26.7654 17.4071 27.3501 17.6098 28.649C17.6925 29.1619 17.7794 29.6762 17.8056 29.7934C17.9573 30.4663 18.2565 31.0055 18.626 31.2757C19.2121 31.7046 20.2228 31.7308 21.2156 31.3447C21.3193 31.2971 21.4286 31.2628 21.541 31.2426C21.5768 31.2785 21.0777 31.6136 20.7247 31.7901C20.3081 32.013 19.8416 32.1259 19.3692 32.1182C18.4592 32.1182 17.7036 31.6563 17.0734 30.7118C16.9493 30.5256 16.6708 29.9699 16.4529 29.4749C15.7883 27.9582 15.4601 27.4949 14.688 26.9888C14.0137 26.5476 13.1464 26.469 12.4942 26.7889C11.6365 27.2094 11.398 28.3056 12.0116 28.9992C12.2556 29.275 12.7107 29.5135 13.083 29.559C13.2454 29.5806 13.4105 29.567 13.5672 29.5192C13.7239 29.4714 13.8685 29.3905 13.9913 29.282C14.114 29.1735 14.212 29.0399 14.2787 28.8903C14.3454 28.7406 14.3791 28.5784 14.3777 28.4146C14.3777 27.9568 14.2012 27.6976 13.76 27.4976C13.1574 27.226 12.5094 27.5431 12.5121 28.1098C12.5135 28.3511 12.6183 28.5028 12.861 28.6131C13.0168 28.6821 13.0195 28.689 12.8927 28.6628C12.3398 28.5469 12.2101 27.881 12.6555 27.4383C13.1891 26.9061 14.2936 27.1405 14.6728 27.8658C14.8328 28.1705 14.8507 28.7786 14.7114 29.1454C14.4012 29.9658 13.4939 30.396 12.5742 30.1616C11.9482 30.0017 11.6931 29.8293 10.9388 29.0516C9.62752 27.7003 9.11871 27.4383 7.2269 27.1433L6.86426 27.0867L7.27792 26.7379H7.27654Z" fill="white"/>
<path fill-rule="evenodd" clip-rule="evenodd" d="M0.799988 0.626159L0.932359 0.787487C6.04521 7.04756 8.68713 10.2962 8.85535 10.5278C9.13113 10.9112 9.02771 11.2545 8.55338 11.5248C8.29002 11.6751 7.74674 11.8267 7.47648 11.8267C7.16899 11.8267 6.8229 11.6792 6.57056 11.4406C6.39269 11.271 5.6743 10.1983 4.01552 7.62393C3.23873 6.40721 2.45183 5.19698 1.65489 3.99336C1.58732 3.92993 1.5887 3.93131 3.8859 8.04173C5.3282 10.623 5.81632 11.5344 5.81632 11.6571C5.81632 11.9053 5.74738 12.0349 5.44127 12.3769C4.93109 12.9464 4.70357 13.5862 4.53811 14.9099C4.35334 16.3949 3.83488 17.4429 2.39534 19.2368C1.55423 20.2875 1.41634 20.4805 1.20262 20.9038C0.935117 21.4361 0.862037 21.7353 0.831702 22.4082C0.799987 23.1197 0.862037 23.5802 1.0799 24.26C1.27018 24.8557 1.46874 25.25 1.97616 26.036C2.41465 26.7158 2.66698 27.2204 2.66698 27.4176C2.66698 27.5748 2.69731 27.5748 3.3771 27.4218C5.00279 27.055 6.32237 26.4083 7.06558 25.6168C7.52474 25.1273 7.6323 24.8571 7.63643 24.1856C7.63781 23.7471 7.62264 23.6547 7.50406 23.4024C7.31102 22.9915 6.95941 22.6495 6.18448 22.12C5.16825 21.4251 4.73529 20.8652 4.61532 20.0972C4.51605 19.4671 4.63049 19.0217 5.19307 17.8441C5.77358 16.6252 5.91836 16.1067 6.01626 14.8782C6.07831 14.0839 6.16518 13.7709 6.39407 13.52C6.63123 13.258 6.84634 13.1684 7.43512 13.0884C8.39481 12.9574 9.00565 12.7092 9.50756 12.2473C9.94328 11.8447 10.1253 11.4572 10.1529 10.8753L10.1749 10.4341L9.93087 10.15C9.58064 9.74188 6.68363 6.54565 1.23847 0.558595L1.09231 0.400024L0.799988 0.627538V0.626159ZM3.16337 23.2148C3.25957 23.0445 3.2883 22.8443 3.24387 22.6538C3.19943 22.4633 3.08508 22.2964 2.92345 22.1862C2.60907 21.9766 2.11957 22.0759 2.11957 22.3489C2.11957 22.4316 2.16507 22.4923 2.26849 22.5461C2.4436 22.6357 2.45601 22.7377 2.3195 22.9432C2.18024 23.1528 2.19127 23.3375 2.35122 23.463C2.60769 23.6643 2.97171 23.5527 3.16475 23.2148H3.16337ZM10.7803 13.32C10.3294 13.4579 9.89227 13.9364 9.75576 14.4369C9.67302 14.7417 9.71991 15.278 9.844 15.4435C10.0439 15.711 10.2384 15.7813 10.7623 15.7772C11.7882 15.7703 12.679 15.3304 12.7838 14.7803C12.8692 14.3294 12.4763 13.7048 11.9371 13.429C11.6586 13.2883 11.0671 13.2318 10.7803 13.32ZM11.9799 14.2577C12.1384 14.0329 12.0681 13.7889 11.8006 13.6262C11.2877 13.3132 10.5128 13.571 10.5128 14.0564C10.5128 14.2963 10.9168 14.5597 11.2863 14.5597C11.5345 14.5597 11.8709 14.4121 11.9799 14.2577Z" fill="white"/>
</svg>
