<svg width="24" height="29" viewBox="0 0 24 29" fill="none" xmlns="http://www.w3.org/2000/svg">
<path d="M23.8873 25.7401L14.7157 2.39743C14.1945 1.18993 13.4299 0.599976 12.4168 0.599976H11.6059C10.591 0.599976 9.82474 1.19165 9.30702 2.39743L5.31781 12.568H2.2989C1.39374 12.5715 0.660011 13.3408 0.653153 14.293V14.3172C0.660011 15.2711 1.39374 16.0404 2.2989 16.0439H3.92064L0.113145 25.7401C0.040835 25.9535 0.0026449 26.1771 0 26.4025C0 26.9459 0.157716 27.372 0.450864 27.7032C0.742298 28.0344 1.14859 28.2 1.66803 28.2C2.01057 28.1944 2.34229 28.0783 2.61433 27.8688C2.90576 27.6566 3.10977 27.3478 3.26577 26.9942L7.45898 16.0439H10.3665C11.2699 16.0404 12.0036 15.2694 12.0122 14.3172V14.2706C12.0036 13.3167 11.2699 12.5456 10.3665 12.5439H8.81158L12.0105 4.1483L20.7312 26.9925C20.8889 27.3461 21.0912 27.6549 21.3844 27.867C21.6604 28.0775 21.9912 28.1948 22.3324 28.1982C22.8501 28.1982 23.2564 28.0326 23.5495 27.7014C23.841 27.3702 23.9987 26.9442 23.9987 26.4008C24.0077 26.1746 23.9698 25.949 23.8873 25.7384V25.7401Z" fill="white"/>
</svg>
