<?xml version="1.0" encoding="utf-8"?>
<!-- Generator: Adobe Illustrator 25.4.1, SVG Export Plug-In . SVG Version: 6.00 Build 0)  -->
<svg version="1.1" id="Layer_1" xmlns="http://www.w3.org/2000/svg" xmlns:xlink="http://www.w3.org/1999/xlink" x="0px" y="0px"
	 viewBox="0 0 822.3 747.6" style="enable-background:new 0 0 822.3 747.6;" xml:space="preserve">
<path d="M420.5,262.9c0-29.9,25.5-55.3,55.3-54.9c30.7,0.4,55.7,24.5,55.7,53.9c0.1,30.8-24.4,55.5-54.9,55.6
	C445.6,317.4,420.5,293,420.5,262.9z"/>
<path d="M290.3,263.5c-0.2-29.9,24.1-54.6,54-54.8c34.3-0.2,56.7,24.8,57,54.4c0.3,29.7-24.7,54.1-55.2,54.5
	C315.4,317.9,290.5,293.8,290.3,263.5z"/>
<path d="M531.9,485.1c-0.1,29.7-25.3,54.5-55.5,54.5c-30.2-0.1-55.6-25.1-55.5-54.7c0-29.5,25.7-55.2,55.6-54.8
	C508.4,430.4,533.4,457.2,531.9,485.1z"/>
<path d="M401.6,485.1c0.1,29.4-25.1,54.6-54.8,54.7c-30.4,0.1-56.1-24.3-56.2-53.3c-0.1-30.9,24.3-55.7,55-56
	C376,430.2,401.5,455.2,401.6,485.1z"/>
<path d="M280.5,319.6c31,0.3,56.2,24.8,55.7,54.3c-0.5,30.9-25,55.3-55.3,54.5c-35.7-0.9-55.7-26.5-55.7-54.1
	C225,344,250.5,319.4,280.5,319.6z"/>
<path d="M541.3,319.3c31.7,0.3,55.9,23.8,55.6,54c-0.3,30.6-24.3,54.9-54.1,54.7c-35.1-0.2-56.6-26.1-56.8-53.1
	C485.7,343.5,510.5,319,541.3,319.3z"/>
<path d="M216.9,296.6c-17.1,0.1-32.2-14.6-32.2-31.5c-0.1-17.9,15.6-33.5,33.6-33.4c15.6,0.1,32.5,16.9,32.5,32.4
	C250.8,281.3,235.1,296.4,216.9,296.6z"/>
<path d="M408.5,186c-17.5,1.5-31.8-19.2-30.8-33.1c1.2-16.5,16.8-32.5,33.1-31.1c19.4,1.6,32.7,14.2,32.4,33.1
	C443,171.4,428.8,187.7,408.5,186z"/>
<path d="M603.7,295.8c-17.6,0-31.8-14.1-31.8-31.7c-0.1-18.4,13.9-32.6,31.9-32.6c18.3,0,33.3,14.7,33.2,32.7
	C636.8,281.6,621.9,295.8,603.7,295.8z"/>
<path d="M185.3,484.8c0.4-18.6,15.1-33.3,33.1-33c17.5,0.3,32.6,16,32.2,33.5c-0.4,17.6-15.6,31.5-33.8,31
	C199.1,515.7,185,501.6,185.3,484.8z"/>
<path d="M441.6,593.8c-0.1,18-14.7,32.1-33.2,32c-17.7-0.1-31.9-14.6-31.6-32.4c0.3-18.2,14.4-32.3,32.1-32.1
	C426.8,561.5,443,576.8,441.6,593.8z"/>
<path d="M637.4,483.7c-0.6,18.4-15.8,32.3-34.6,31.8c-13.1-0.4-31.3-11.5-30.3-33c0.9-19.3,15-31.5,32.6-31.4
	C623.4,451.3,637.9,466.6,637.4,483.7z"/>
<path d="M556,99.7c15.4,0.1,27.7,12.2,27.5,27.1c-0.2,14-13.7,28-26.8,27.9c-15.5-0.1-29.2-13.5-29.1-28.4
	C527.6,111,539.8,99.6,556,99.7z"/>
<path d="M728.5,373.5c0,15.5-12.2,27.2-28.3,27.1c-13.3-0.1-27.6-13.2-27.6-25.5c-0.1-15.1,14-30.2,28.6-29.9
	C712.4,345.5,729.5,356.2,728.5,373.5z"/>
<path d="M120.6,401.7c-14.8,0-26.9-11.9-27-26.4c0-15.9,12-28.4,27.4-28.3c14.7,0.1,28.2,13.3,28.2,27.6
	C149.3,389.8,136.7,401.7,120.6,401.7z"/>
<path d="M293.5,127.6c-0.2,15.5-13,27.3-29.2,27c-14.5-0.3-26.4-12.6-26.3-27.2c0-15,13.1-28,27.8-27.6
	C280.8,100.2,293.7,113.1,293.5,127.6z"/>
<path d="M555.3,647.8c-14.7-0.3-26.9-13-26.5-27.6c0.5-15.5,13-27.8,27.9-27.3c15.2,0.5,28,13.3,27.7,27.8
	C584.2,636.1,571.2,648.2,555.3,647.8z"/>
<path d="M294.5,621.3c-0.3,15.1-12.8,27.4-27.6,27.2c-14.1-0.2-28.5-13.1-28.4-25.2c0.2-16.8,13-29.9,28.7-29.6
	C282.1,594,294.8,606.8,294.5,621.3z"/>
<path d="M410,702.6c14.6,0.3,22,10.5,22.4,22c0.6,13.7-10.7,23-23.6,22.9c-11.8,0-22.4-10.7-22.3-22.4
	C386.6,712.2,396.7,702.5,410,702.6z"/>
<path d="M387.6,22.9c0.1-12.7,10.6-23.2,22.8-22.9c12.1,0.3,23.2,11.4,23,23.1c-0.2,12.4-11,22.5-24,22.3
	C397,45.1,387.5,35.4,387.6,22.9z"/>
<path d="M102.3,527.4c12.5,0.1,23.4,10.6,23.3,22.5c-0.2,12.8-10.5,22.6-23.6,22.6c-12.4,0-22.4-10.2-22.3-22.7
	C79.8,537.4,89.9,527.4,102.3,527.4z"/>
<path d="M742.5,197.9c-0.1,12.3-10.7,22.7-23.2,22.6c-12.1-0.1-22.4-10.6-22.5-22.9c-0.1-12.4,10.2-22.5,22.7-22.3
	C732.6,175.5,742.6,185.3,742.5,197.9z"/>
<path d="M742.8,547.4c0.8,13.1-8.2,23.3-21.2,24c-12.4,0.7-23.6-9.1-24.1-21.1c-0.6-12.4,9.1-23.4,21.1-24
	C732.2,525.7,742,534.3,742.8,547.4z"/>
<path d="M101.5,176.5c12.3,0.1,23.1,10.4,23.1,22.2c0,13.1-10.3,23-23.8,22.8c-12.1-0.2-21.8-9.9-21.9-22
	C78.8,186.8,89,176.4,101.5,176.5z"/>
<path d="M214.7,691.4c10.8-0.1,18.4,7.2,18.6,17.9c0.2,9.5-7.7,17.5-17.3,17.6c-9.3,0.1-19.1-9-19.4-18.1
	C196.3,701.1,206.2,691.5,214.7,691.4z"/>
<path d="M606.8,20.8c8.7,0,18.6,9.6,18.9,18.2c0.2,7.9-9.8,17.5-18.2,17.5c-10.6,0-18.5-7.7-18.5-18C589,28.6,596.9,20.8,606.8,20.8
	z"/>
<path d="M607.8,725.7c-9.8,0-17.6-7.6-17.4-17.2c0.1-8.7,9.1-18.6,16.9-18.8c8.8-0.2,19.1,9.7,19.2,18.4
	C626.6,718.3,618.7,725.7,607.8,725.7z"/>
<path d="M231.6,39.9c0,9.7-8.2,17.6-18,17.6c-10.2,0-17.6-7.7-17.5-17.9c0.2-10.5,7.8-18,18.1-17.8
	C224.1,21.9,231.7,29.9,231.6,39.9z"/>
<path d="M803.8,390.6c-10.8-0.1-17.4-7.1-17.2-18.2c0.1-9.8,7.7-17.2,17.6-17c10,0.2,18.3,8.2,18.2,17.6
	C822.2,382.8,813.9,390.6,803.8,390.6z"/>
<path d="M35.9,374c0,10.8-7.7,18.6-18.5,18.5c-9.2-0.1-17.2-8-17.4-17.2c-0.2-9.7,8.4-18.5,17.9-18.4C27.7,357,35.9,364.8,35.9,374z
	"/>
</svg>
