<svg width="24" height="30" viewBox="0 0 24 30" fill="none" xmlns="http://www.w3.org/2000/svg">
<path fill-rule="evenodd" clip-rule="evenodd" d="M15.285 30C13.095 30 11.499 29.484 10.497 28.455C9.4965 27.423 8.9955 26.3115 8.9955 25.1205C8.9955 24.6855 9.0825 24.318 9.258 24.021C9.42913 23.7262 9.67622 23.4828 9.9735 23.316C10.2765 23.145 10.6485 23.058 11.091 23.058C11.5335 23.058 11.907 23.145 12.21 23.316C12.513 23.4885 12.75 23.7225 12.9255 24.021C13.101 24.318 13.188 24.6855 13.188 25.1205C13.188 25.647 13.0605 26.076 12.804 26.409C12.5792 26.7188 12.2604 26.9476 11.895 27.0615C12.198 27.474 12.675 27.7665 13.3275 27.9375C13.98 28.122 14.6325 28.2135 15.2835 28.2135C16.1585 28.2237 17.0166 27.9725 17.748 27.492C18.4815 27.0105 19.023 26.2995 19.371 25.362C19.7205 24.4215 19.896 23.3565 19.896 22.1655C19.896 20.871 19.704 19.7655 19.32 18.849C18.9465 17.9205 18.393 17.2335 17.6595 16.7865C16.9457 16.3457 16.1225 16.1139 15.2835 16.1175C14.7255 16.1175 14.0265 16.3455 13.188 16.8045L11.6505 17.5605V16.8045L18.5685 7.7325H8.9955V17.148C8.9955 17.928 9.1695 18.5685 9.5205 19.0725C9.8685 19.5765 10.4055 19.8285 11.1255 19.8285C11.685 19.8285 12.2205 19.6455 12.7335 19.278C13.248 18.9092 13.6968 18.4563 14.061 17.9385C14.097 17.8484 14.1579 17.7704 14.2365 17.7135C14.2998 17.6598 14.38 17.6301 14.463 17.6295C14.592 17.6295 14.742 17.6925 14.9175 17.817C15.0767 17.9904 15.164 18.2177 15.162 18.453C15.142 18.615 15.1129 18.7757 15.075 18.9345C14.679 19.8045 14.13 20.469 13.4325 20.928C12.7494 21.3811 11.9467 21.6203 11.127 21.615C9.054 21.615 7.6215 21.2145 6.8295 20.412C6.0375 19.611 5.6415 18.522 5.6415 17.148V7.7325H0.75V5.979H5.64V1.995L4.524 0.894V0H7.773L8.9955 0.618V5.979L21.642 5.9445L22.902 7.182L15.144 14.811C15.6139 14.6262 16.108 14.5101 16.611 14.466C17.451 14.466 18.393 14.73 19.4415 15.258C20.502 15.7725 21.3165 16.4835 21.8865 17.388C22.458 18.282 22.8255 19.1415 22.9875 19.9665C23.1505 20.6885 23.2385 21.4254 23.25 22.1655C23.261 23.5837 22.9377 24.9845 22.3065 26.2545C21.6999 27.4922 20.6893 28.4859 19.4415 29.0715C18.1449 29.6937 16.7232 30.0113 15.285 30Z" fill="white"/>
</svg>
