<svg xmlns="http://www.w3.org/2000/svg" width="31.152" height="13.2" viewBox="0 0 31.152 13.2">
  <g id="icon-moss" transform="translate(-0.6 0)">
    <path id="Path_15" data-name="Path 15" d="M13.8,4.682H10.015a2.283,2.283,0,0,0-.934-1.417,3.316,3.316,0,0,0-1.868-.493,2.562,2.562,0,0,0-2.049.8,3.605,3.605,0,0,0-.817,2.674,4.651,4.651,0,0,0,.817,3.112,2.422,2.422,0,0,0,2.114.683,2.938,2.938,0,0,0,1.8-.431,2.706,2.706,0,0,0,.934-1.7H13.8a5.7,5.7,0,0,1-2.345,3.893,7.155,7.155,0,0,1-4.241,1.13A6.714,6.714,0,0,1,2.39,11.223,6.255,6.255,0,0,1,.6,6.48,6.238,6.238,0,0,1,2.4,1.713,6.787,6.787,0,0,1,7.279,0a7.151,7.151,0,0,1,3.994.979A5.791,5.791,0,0,1,13.8,4.682Z"/>
    <rect id="Rectangle_1" data-name="Rectangle 1" width="6.072" height="3.036" transform="translate(19.212)"/>
    <rect id="Rectangle_2" data-name="Rectangle 2" width="6.072" height="3.036" transform="translate(19.476 6.996)"/>
    <path id="Subtraction_2" data-name="Subtraction 2" d="M-701.384-247.968h0a4.982,4.982,0,0,1-3.545-1.469,4.983,4.983,0,0,1-1.47-3.547,4.98,4.98,0,0,1,1.47-3.547,4.982,4.982,0,0,1,3.546-1.47v3.041a1.986,1.986,0,0,0-.625.146,1.975,1.975,0,0,0-.642.429,1.949,1.949,0,0,0-.429.643,1.964,1.964,0,0,0-.151.758,1.964,1.964,0,0,0,.151.758,1.953,1.953,0,0,0,.429.642,1.946,1.946,0,0,0,.642.429,1.968,1.968,0,0,0,.625.147v3.039Z" transform="translate(720.992 258)"/>
    <path id="Subtraction_1" data-name="Subtraction 1" d="M-706.4-247.968h0V-251h.007a1.948,1.948,0,0,0,.751-.15,1.961,1.961,0,0,0,.643-.429,1.982,1.982,0,0,0,.429-.642,1.98,1.98,0,0,0,.15-.758,1.98,1.98,0,0,0-.15-.758,1.978,1.978,0,0,0-.429-.643,1.99,1.99,0,0,0-.643-.429,1.98,1.98,0,0,0-.757-.15V-258a5.051,5.051,0,0,1,3.547,1.47,4.983,4.983,0,0,1,1.469,3.547,4.986,4.986,0,0,1-1.469,3.547A4.983,4.983,0,0,1-706.4-247.968Z" transform="translate(731.684 258)"/>
    <circle id="Ellipse_1" data-name="Ellipse 1" cx="1.716" cy="1.716" r="1.716" transform="translate(28.32 9.768)"/>
  </g>
</svg>
