<svg width="29" height="28" viewBox="0 0 29 28" fill="none" xmlns="http://www.w3.org/2000/svg">
<path fill-rule="evenodd" clip-rule="evenodd" d="M10.691 0.529988C13.484 0.765488 17.1815 2.29999 20.744 4.89799C24.293 7.51099 26.897 10.6205 28.004 13.247C28.814 15.1535 28.841 16.841 28.031 18.002L22.472 25.9625C21.662 27.1235 20.0825 27.635 18.0725 27.47C15.2795 27.221 11.5685 25.7 8.01948 23.0885C4.45698 20.489 1.86648 17.3795 0.744481 14.753C-0.0640189 12.8465 -0.0910193 11.159 0.718981 9.99799L6.29148 2.03749C7.10148 0.876487 8.66748 0.364988 10.691 0.529988ZM22.373 19.202C22.3208 19.1936 22.2674 19.2061 22.2244 19.2368C22.1813 19.2675 22.1521 19.3139 22.143 19.3659C22.134 19.418 22.1458 19.4716 22.1759 19.515C22.206 19.5584 22.252 19.5882 22.304 19.598C23.402 19.793 24.3845 19.8275 25.205 19.694C25.2548 19.6826 25.2985 19.6527 25.3271 19.6103C25.3556 19.5679 25.367 19.5162 25.3588 19.4657C25.3505 19.4152 25.3234 19.3698 25.2828 19.3386C25.2423 19.3075 25.1914 19.2929 25.1405 19.298C24.3695 19.424 23.4305 19.3895 22.373 19.202ZM20.5865 18.9815C20.5792 19.0069 20.5769 19.0335 20.5799 19.0598C20.5829 19.0861 20.591 19.1115 20.6038 19.1346C20.6166 19.1578 20.6339 19.1781 20.6546 19.1946C20.6753 19.211 20.6991 19.2232 20.7245 19.2305C20.9885 19.3055 21.2495 19.373 21.506 19.433C21.5556 19.4396 21.6059 19.4276 21.6471 19.3991C21.6883 19.3706 21.7173 19.3278 21.7286 19.279C21.7398 19.2302 21.7325 19.179 21.708 19.1353C21.6834 19.0917 21.6435 19.0587 21.596 19.043C21.347 18.983 21.092 18.917 20.8325 18.8435C20.7816 18.8292 20.727 18.8357 20.6809 18.8616C20.6348 18.8874 20.6008 18.9306 20.5865 18.9815ZM7.06098 2.60449L7.03398 2.65849C6.42648 3.58549 6.56148 4.89799 7.19598 6.39049C8.26098 8.90599 10.7585 11.8505 14.1455 14.339C17.5325 16.826 21.0545 18.305 23.7125 18.527C25.3055 18.6515 26.5595 18.362 27.2225 17.4905L27.2615 17.4215C27.9095 16.508 27.7745 15.1535 27.1415 13.634C26.075 11.132 23.5775 8.18899 20.177 5.69899C16.79 3.21199 13.268 1.73299 10.61 1.51249C8.98998 1.37299 7.70898 1.67749 7.06098 2.60449ZM5.94498 6.27649C5.89417 6.29177 5.85146 6.32652 5.82617 6.37317C5.80088 6.41981 5.79506 6.47457 5.80998 6.52549C6.49398 8.87149 8.23098 11.105 10.9625 13.6205L11.27 13.9025C11.4814 14.0942 11.6944 14.2842 11.909 14.4725C11.993 14.5445 12.119 14.5355 12.191 14.4515C12.226 14.4113 12.2436 14.3589 12.2399 14.3057C12.2363 14.2525 12.2116 14.203 12.1715 14.168C12.0065 14.0255 11.8475 13.883 11.6885 13.7405L11.378 13.4585C8.61348 10.934 6.86298 8.70949 6.19248 6.41299C6.18524 6.38775 6.17308 6.36419 6.1567 6.34366C6.14033 6.32313 6.12007 6.30603 6.09707 6.29335C6.07408 6.28067 6.04881 6.27265 6.02271 6.26976C5.99661 6.26686 5.9702 6.26915 5.94498 6.27649ZM13.8215 5.85199C15.1445 5.97649 16.9115 6.70849 18.599 7.95199C20.2985 9.19699 21.554 10.676 22.079 11.933C22.391 12.638 22.472 13.2605 22.1615 13.688C21.8645 14.117 21.257 14.243 20.5145 14.1725C19.1795 14.0615 17.4245 13.316 15.725 12.0725C14.024 10.8275 12.77 9.36199 12.2435 8.10499C11.9465 7.39999 11.8655 6.77749 12.1625 6.34999C12.4595 5.92099 13.0655 5.79649 13.8215 5.85199ZM5.72598 4.68499C5.67293 4.68733 5.62295 4.71057 5.58698 4.74964C5.551 4.7887 5.53195 4.84042 5.53398 4.89349C5.54598 5.16649 5.57448 5.44099 5.62248 5.71849C5.62701 5.74429 5.63658 5.76895 5.65064 5.79106C5.6647 5.81317 5.68298 5.83229 5.70443 5.84733C5.72588 5.86237 5.75008 5.87304 5.77566 5.87873C5.80123 5.88442 5.82768 5.88502 5.85348 5.88049C5.87929 5.87596 5.90395 5.86639 5.92605 5.85233C5.94816 5.83827 5.96728 5.81999 5.98232 5.79854C5.99737 5.77709 6.00804 5.75289 6.01373 5.72731C6.01942 5.70174 6.02001 5.67529 6.01548 5.64949C5.9714 5.39403 5.94384 5.13599 5.93298 4.87699C5.93201 4.85078 5.92589 4.82503 5.91496 4.80119C5.90403 4.77735 5.88851 4.75591 5.86929 4.73807C5.85006 4.72024 5.82751 4.70638 5.80292 4.69727C5.77833 4.68816 5.75219 4.68398 5.72598 4.68499Z" fill="white"/>
</svg>
