<svg width="33" height="28" viewBox="0 0 33 28" fill="none" xmlns="http://www.w3.org/2000/svg">
<path d="M32.6526 0.380012C32.5729 0.264033 32.4652 0.168761 32.3388 0.102519C32.2125 0.0362769 32.0713 0.00107964 31.9277 1.8222e-06H23.9775C23.8044 -0.000346231 23.6351 0.0491733 23.491 0.142291C23.3469 0.23541 23.2345 0.367939 23.168 0.523102L16.7885 15.3013L10.2641 0.523102C10.197 0.368852 10.0847 0.237087 9.94129 0.144112C9.79783 0.0511366 9.62945 0.00103324 9.45696 1.8222e-06H1.27722C1.1333 0.000928296 0.99185 0.0363081 0.865394 0.103005C0.738939 0.169702 0.631388 0.265655 0.552277 0.382358C0.471157 0.499879 0.42121 0.635038 0.406877 0.775816C0.392543 0.916595 0.414267 1.05863 0.470117 1.18929L11.9048 27.0839C11.973 27.2367 12.0858 27.3668 12.2292 27.4582C12.3726 27.5496 12.5404 27.5983 12.7119 27.5983C12.8835 27.5983 13.0513 27.5496 13.1947 27.4582C13.3381 27.3668 13.4508 27.2367 13.519 27.0839L17.4265 18.2311H24.7846C24.9576 18.2308 25.1266 18.1811 25.2706 18.088C25.4146 17.995 25.5271 17.8628 25.5941 17.708L32.7324 1.17287C32.7863 1.04434 32.8072 0.90501 32.7933 0.766891C32.7794 0.628772 32.7311 0.496001 32.6526 0.380012ZM12.724 24.5834L2.60869 1.70536H8.87701L15.8437 17.4852L12.724 24.5834ZM24.1998 16.5258H18.1587L24.5647 1.70536H30.6059L24.1998 16.5258Z" fill="white"/>
</svg>
