<svg width="23" height="30" viewBox="0 0 23 30" fill="none" xmlns="http://www.w3.org/2000/svg">
<path d="M22.7833 12.03C23.2543 8.886 20.8588 7.1955 17.5858 6.0675L18.6478 1.8075L16.0558 1.1625L15.0208 5.31C14.3398 5.139 13.6408 4.98 12.9433 4.821L13.9858 0.6465L11.3938 0L10.3318 4.2585C9.76779 4.1295 9.21279 4.0035 8.67579 3.8685L8.67879 3.855L5.10279 2.9625L4.41279 5.7315C4.41279 5.7315 6.33729 6.1725 6.29679 6.1995C7.34679 6.462 7.53579 7.1565 7.50429 7.7085L6.29529 12.561C6.36729 12.579 6.46029 12.606 6.56529 12.6465L6.29079 12.579L4.59579 19.377C4.46679 19.695 4.14129 20.1735 3.40629 19.992C3.43329 20.0295 1.52229 19.5225 1.52229 19.5225L0.235291 22.4895L3.61029 23.331C4.23729 23.4885 4.85229 23.6535 5.45679 23.808L4.38429 28.116L6.97479 28.761L8.03679 24.501C8.74479 24.6915 9.43179 24.8685 10.1038 25.0365L9.04479 29.2785L11.6368 29.9235L12.7093 25.6245C17.1313 26.4615 20.4553 26.124 21.8548 22.125C22.9828 18.906 21.7993 17.0475 19.4728 15.837C21.1678 15.447 22.4428 14.3325 22.7833 12.03ZM16.8583 20.337C16.0588 23.5575 10.6363 21.816 8.87829 21.3795L10.3033 15.672C12.0613 16.1115 17.6968 16.98 16.8583 20.337ZM17.6608 11.9835C16.9303 14.913 12.4183 13.4235 10.9558 13.059L12.2458 7.884C13.7083 8.2485 18.4228 8.928 17.6608 11.9835Z" fill="white"/>
</svg>
