<svg width="25" height="30" viewBox="0 0 25 30" fill="none" xmlns="http://www.w3.org/2000/svg">
<path fill-rule="evenodd" clip-rule="evenodd" d="M1.855 23.3804C1.48216 23.16 1.17285 22.8466 0.957268 22.4709C0.741689 22.0952 0.627207 21.6701 0.625 21.2369V16.3574C0.625 15.7769 1.108 15.3074 1.699 15.3104C1.888 15.3104 2.074 15.3599 2.239 15.4529L13.4935 21.8744C14.152 22.2494 14.5585 22.9394 14.5585 23.6849V28.7399C14.5575 28.907 14.5235 29.0723 14.4584 29.2262C14.3934 29.3801 14.2985 29.5196 14.1793 29.6367C14.0601 29.7538 13.919 29.8462 13.7639 29.9085C13.6089 29.9709 13.4431 30.0019 13.276 29.9999C13.0385 30.0001 12.8054 29.9363 12.601 29.8154L1.855 23.3804ZM18.631 14.1164C19.291 14.4914 19.693 15.1829 19.696 15.9269V26.1869C19.696 26.4899 19.531 26.7704 19.2595 26.9174L16.7965 28.2734C16.7648 28.2911 16.7311 28.3047 16.696 28.3139V22.6169C16.696 21.8789 16.3015 21.1949 15.652 20.8169L5.77 15.0299V8.59945C5.77 8.01895 6.253 7.54945 6.8455 7.55245C7.03428 7.55273 7.21978 7.60182 7.384 7.69495L18.634 14.1164H18.631ZM23.5585 6.53845C24.2185 6.91345 24.625 7.60345 24.625 8.35195V23.3369C24.6231 23.4892 24.5802 23.6381 24.5007 23.768C24.4213 23.8979 24.3082 24.004 24.1735 24.0749L21.838 25.3094V14.8754C21.838 14.1389 21.442 13.4564 20.7985 13.0769L10.6945 7.14745V1.04995C10.6945 0.863945 10.747 0.682446 10.8385 0.521946C10.9856 0.280695 11.2208 0.106174 11.4944 0.0353388C11.7679 -0.0354962 12.0583 0.00291748 12.304 0.142445L23.5585 6.53995V6.53845Z" fill="white"/>
</svg>
